<svg width="11" height="16" viewBox="0 0 11 16" fill="none" xmlns="http://www.w3.org/2000/svg">
    <path
        d="M8 7.99701L1 14C0.812713 14.1644 0.5 14.7656 0.5 15C0.5 15.2345 0.69923 15.5796 0.886518 15.7443C1.07351 15.9092 1.32347 16 1.58984 16C1.85621 16 2.10588 15.9092 2.29302 15.7443L10.3916 8.61763C10.5795 8.45242 10.6824 8.23167 10.6816 7.99701C10.6824 7.7613 10.5796 7.54081 10.3916 7.37548L2.30056 0.255739C2.11342 0.0907965 1.86375 0 1.59723 0C1.33086 0 1.0812 0.0907965 0.893909 0.255739C0.506179 0.596943 0.112269 1.15893 0.5 1.5L8 7.99701Z"
        fill="currentColor" />
</svg>