<svg width="7" height="11" viewBox="0 0 7 11" fill="none" xmlns="http://www.w3.org/2000/svg">
<path fill-rule="evenodd" clip-rule="evenodd" d="M0.267243 6.09427C0.0961275 5.93934 0 5.72923 0 5.51015C0 5.29107 0.0961275 5.08097 0.267243 4.92603L5.43071 0.252229C5.51491 0.173318 5.61562 0.110377 5.72698 0.0670764C5.83834 0.0237762 5.95812 0.000984475 6.07931 3.11942e-05C6.20051 -0.000922086 6.3207 0.0199824 6.43287 0.0615243C6.54505 0.103066 6.64696 0.164414 6.73266 0.241988C6.81836 0.319562 6.88614 0.411808 6.93203 0.513345C6.97792 0.614882 7.00102 0.723675 6.99997 0.833377C6.99891 0.943079 6.97373 1.05149 6.9259 1.15229C6.87806 1.25309 6.80852 1.34426 6.72135 1.42047L2.2032 5.51015L6.72135 9.59983C6.88761 9.75566 6.97961 9.96435 6.97753 10.181C6.97545 10.3976 6.87946 10.6048 6.71023 10.758C6.541 10.9112 6.31206 10.9981 6.07274 11C5.83342 11.0019 5.60286 10.9186 5.43071 10.7681L0.267243 6.09427Z" fill="currentColor"/>
</svg>
