<svg width="27" height="27" viewBox="0 0 27 27" fill="none" xmlns="http://www.w3.org/2000/svg">
    <path fill-rule="evenodd" clip-rule="evenodd"
        d="M11.5668 2.53167e-07H15.4332C17.4467 -1.2305e-05 19.0252 -1.2368e-05 20.2863 0.119893C21.5717 0.242109 22.6242 0.495508 23.5521 1.06408C24.5237 1.65949 25.3406 2.4764 25.936 3.44801C26.5045 4.37583 26.7579 5.42834 26.8801 6.71374C27.0001 7.9748 27.0001 9.55331 27.0001 11.5668V12.907C27.0001 14.3403 27.0001 15.4641 26.9382 16.3718C26.8751 17.2955 26.7449 18.0642 26.4504 18.775C25.7175 20.5443 24.3117 21.95 22.5424 22.6829C21.5316 23.1016 20.3801 23.1946 18.8037 23.2217C18.2523 23.2312 17.903 23.2383 17.6368 23.2677C17.388 23.2953 17.2916 23.3356 17.2351 23.3685C17.1756 23.403 17.0944 23.4662 16.9537 23.6593C16.8012 23.8686 16.629 24.1575 16.356 24.6189L15.6752 25.769C14.7037 27.4103 12.2963 27.4103 11.3248 25.769L10.644 24.6189C10.371 24.1575 10.1988 23.8686 10.0463 23.6593C9.90553 23.4662 9.82442 23.403 9.76488 23.3685C9.70844 23.3356 9.61201 23.2953 9.36322 23.2677C9.09697 23.2383 8.74771 23.2312 8.19629 23.2217C6.61989 23.1946 5.46851 23.1016 4.45761 22.6829C2.68828 21.95 1.28254 20.5443 0.549659 18.775C0.25522 18.0642 0.124954 17.2955 0.0619371 16.3718C-1.2327e-05 15.4641 2.53167e-07 14.3403 2.53167e-07 12.907V11.5668C-1.2305e-05 9.55333 -1.2368e-05 7.9748 0.119893 6.71374C0.242109 5.42834 0.495508 4.37583 1.06408 3.44801C1.65949 2.4764 2.4764 1.65949 3.44801 1.06408C4.37583 0.495508 5.42834 0.242109 6.71373 0.119893C7.9748 -1.2368e-05 9.55333 -1.2305e-05 11.5668 2.53167e-07ZM6.89204 1.99515C5.74453 2.10426 5.01436 2.3135 4.43225 2.67022C3.7141 3.11031 3.11031 3.7141 2.67022 4.43226C2.3135 5.01436 2.10426 5.74453 1.99515 6.89204C1.88472 8.05355 1.88373 9.54265 1.88373 11.6163V12.8721C1.88373 14.3478 1.88424 15.4075 1.94129 16.2436C1.99777 17.0713 2.10647 17.6111 2.28999 18.0541C2.83169 19.3619 3.87072 20.4009 5.17849 20.9426C5.82602 21.2109 6.65214 21.3111 8.22874 21.3383L8.2687 21.339C8.76852 21.3476 9.20651 21.355 9.57054 21.3954C9.96172 21.4387 10.3443 21.5262 10.7119 21.7401C11.0766 21.9522 11.3394 22.2354 11.5687 22.5498C11.7804 22.8405 11.9981 23.2083 12.2447 23.6248L12.9458 24.8095C13.188 25.2184 13.8121 25.2184 14.0541 24.8095L14.7553 23.6248C15.0019 23.2083 15.2195 22.8405 15.4314 22.5498C15.6605 22.2354 15.9235 21.9522 16.2881 21.7401C16.6558 21.5262 17.0383 21.4387 17.4295 21.3954C17.7935 21.355 18.2314 21.3476 18.7313 21.339L18.7713 21.3383C20.3479 21.3111 21.1741 21.2109 21.8216 20.9426C23.1294 20.4009 24.1683 19.3619 24.7101 18.0541C24.8936 17.6111 25.0023 17.0713 25.0588 16.2436C25.1158 15.4075 25.1163 14.3478 25.1163 12.8721V11.6163C25.1163 9.54265 25.1153 8.05355 25.0049 6.89204C24.8958 5.74453 24.6866 5.01436 24.3298 4.43226C23.8898 3.7141 23.286 3.11031 22.5678 2.67022C21.9857 2.3135 21.2556 2.10426 20.108 1.99515C18.9465 1.88472 17.4574 1.88373 15.3838 1.88373H11.6163C9.54265 1.88373 8.05355 1.88472 6.89204 1.99515ZM7.5349 9.73258C7.5349 9.21241 7.95659 8.79072 8.47676 8.79072H18.5233C19.0435 8.79072 19.4652 9.21241 19.4652 9.73258C19.4652 10.2528 19.0435 10.6744 18.5233 10.6744H8.47676C7.95659 10.6744 7.5349 10.2528 7.5349 9.73258ZM7.5349 14.1279C7.5349 13.6078 7.95659 13.1861 8.47676 13.1861H15.3838C15.9039 13.1861 16.3256 13.6078 16.3256 14.1279C16.3256 14.6481 15.9039 15.0698 15.3838 15.0698H8.47676C7.95659 15.0698 7.5349 14.6481 7.5349 14.1279Z"
        fill="currentColor" />
</svg>