<svg width="14" height="14" viewBox="0 0 14 14" fill="none" xmlns="http://www.w3.org/2000/svg">
<path d="M0.544937 4.28751C0.896238 3.45083 1.40731 2.69035 2.04967 2.04845C2.69011 1.40543 3.45087 0.894194 4.28877 0.543764C5.14712 0.183032 6.06937 -0.00187867 7.00073 1.43896e-05H7.03205C7.97936 0.00470188 8.89535 0.192202 9.75811 0.560951C10.5888 0.914974 11.3424 1.42712 11.9768 2.06876C12.613 2.70922 13.1182 3.46704 13.4644 4.30001C13.8237 5.1662 14.0058 6.09536 13.9999 7.03282C13.9952 8.11719 13.7352 9.19376 13.2498 10.1563V12.5313C13.2498 12.9281 12.9273 13.25 12.5311 13.25H10.1543C9.18522 13.7379 8.11588 13.9947 7.03048 14H6.9976C6.06125 14 5.15465 13.8188 4.29973 13.4641C3.46607 13.1178 2.70815 12.6125 2.06846 11.9766C1.42335 11.3375 0.916032 10.5906 0.560595 9.75782C0.192632 8.89532 0.00473595 7.97813 3.8147e-05 7.03126C-0.00309277 6.0797 0.181671 5.15626 0.544937 4.28751ZM10.1261 7.75001C10.5394 7.75001 10.8761 7.41407 10.8761 7.00001C10.8761 6.58595 10.5394 6.25001 10.1261 6.25001C9.7127 6.25001 9.37605 6.58595 9.37605 7.00001C9.37605 7.41407 9.71113 7.75001 10.1261 7.75001ZM7.00073 7.75001C7.4141 7.75001 7.75075 7.41407 7.75075 7.00001C7.75075 6.58595 7.4141 6.25001 7.00073 6.25001C6.58736 6.25001 6.25071 6.58595 6.25071 7.00001C6.25071 7.41407 6.58736 7.75001 7.00073 7.75001ZM3.87539 7.75001C4.28877 7.75001 4.62541 7.41407 4.62541 7.00001C4.62541 6.58595 4.28877 6.25001 3.87539 6.25001C3.46202 6.25001 3.12538 6.58595 3.12538 7.00001C3.12538 7.41407 3.46202 7.75001 3.87539 7.75001Z" fill="white"/>
</svg>
