<svg width="21" height="21" viewBox="0 0 21 21" fill="none" xmlns="http://www.w3.org/2000/svg">
    <path
        d="M20.2467 18.1907C20.5196 18.4637 20.673 18.834 20.673 19.22C20.673 19.6061 20.5196 19.9763 20.2467 20.2493C19.9737 20.5223 19.6034 20.6757 19.2174 20.6757C18.8313 20.6757 18.4611 20.5223 18.1881 20.2493L10.4998 12.5587L2.80916 20.2469C2.53617 20.5199 2.16593 20.6732 1.77986 20.6732C1.3938 20.6732 1.02355 20.5199 0.750568 20.2469C0.477581 19.9739 0.324219 19.6037 0.324219 19.2176C0.324219 18.8315 0.477581 18.4613 0.750568 18.1883L8.44123 10.5001L0.752989 2.8094C0.480003 2.53641 0.326641 2.16616 0.326641 1.7801C0.326641 1.39404 0.480003 1.02379 0.752989 0.750802C1.02598 0.477815 1.39622 0.324453 1.78229 0.324453C2.16835 0.324453 2.5386 0.477815 2.81158 0.750802L10.4998 8.44147L18.1905 0.749591C18.4635 0.476604 18.8337 0.323242 19.2198 0.323242C19.6058 0.323242 19.9761 0.476604 20.2491 0.749591C20.5221 1.02258 20.6754 1.39283 20.6754 1.77889C20.6754 2.16495 20.5221 2.5352 20.2491 2.80818L12.5584 10.5001L20.2467 18.1907Z"
        fill="currentColor" />
</svg>