<svg width="5" height="21" viewBox="0 0 5 21" fill="none" xmlns="http://www.w3.org/2000/svg">
<path d="M1.93455e-05 18.6174V18.0429C0.0119052 17.9964 0.0317149 17.9542 0.0396388 17.9077C0.213965 16.6995 1.15691 15.7447 2.26227 15.6645C3.4984 15.5715 4.54436 16.3235 4.88508 17.5486C4.92866 17.7091 4.96036 17.8781 4.99998 18.0429V18.6174C4.98809 18.6554 4.96828 18.6892 4.96432 18.7314C4.79396 19.8467 4.04119 20.6958 3.01108 20.9366C2.93184 20.9535 2.8526 20.9789 2.77336 21H2.23454C2.19888 20.9873 2.16322 20.9662 2.12757 20.962C1.09746 20.7845 0.313014 20.003 0.0752768 18.9173C0.0515051 18.8117 0.023791 18.7145 1.93455e-05 18.6174ZM5 2.37838L4.99998 2.95296C4.98809 2.99943 4.96828 3.04167 4.96432 3.08814C4.78603 4.30481 3.83913 5.25532 2.72186 5.33136C1.48969 5.41585 0.4477 4.65544 0.110934 3.42611C0.0673527 3.26978 0.0356575 3.10927 0 2.95294V2.3784C0.0118858 2.34038 0.0316956 2.30659 0.0396195 2.26857C0.229793 1.17019 0.828047 0.452024 1.82646 0.109838C1.9572 0.0633678 2.09587 0.0380207 2.23058 0H2.7694C2.80506 0.0126736 2.84072 0.0337962 2.87638 0.0380207C3.91044 0.219675 4.69095 0.996986 4.92866 2.08269C4.95246 2.18408 4.97623 2.28124 5 2.37838ZM4.99998 10.2107V10.7852C4.98809 10.8317 4.96828 10.8739 4.96036 10.9204C4.78207 12.1328 3.79951 13.1087 2.69016 13.1594C1.44215 13.2185 0.384309 12.4159 0.0871628 11.1781C0.0554672 11.0471 0.0277336 10.9162 0 10.7852V10.2107C0.0118858 10.1642 0.0316956 10.1219 0.0396195 10.0755C0.213945 8.86304 1.20047 7.88716 2.30982 7.83226C3.55783 7.76889 4.61567 8.57577 4.91282 9.81356C4.94451 9.94874 4.97225 10.0797 4.99998 10.2107Z" fill="currentColor"/>
</svg>
