<svg width="25" height="28" viewBox="0 0 25 28" fill="none" xmlns="http://www.w3.org/2000/svg">
<path d="M11.9683 24.5777C11.9666 24.5724 11.9613 24.5689 11.9578 24.5645L9.43871 20.6285C9.25984 20.3348 8.87229 20.2304 8.56891 20.3953L8.34445 20.5329C8.04283 20.6978 8.04896 21.123 8.22783 21.4168L9.84205 23.9218C9.70439 23.8911 9.56497 23.8666 9.42907 23.8315C6.60222 23.0923 4.2094 21.1783 2.86612 18.5811C1.5965 16.1287 1.358 13.329 2.19448 10.6968C3.03096 8.06464 4.92839 5.91645 7.38083 4.6477C7.7982 4.43113 7.96128 3.91819 7.74559 3.50083C7.52989 3.08259 7.01608 2.9195 6.59871 3.13608C3.74206 4.61438 1.54564 7.11681 0.571501 10.1821C-0.402638 13.2475 -0.124689 16.5084 1.35362 19.365C2.91961 22.3883 5.70524 24.6162 8.99943 25.479C9.03713 25.4887 9.07571 25.4939 9.11341 25.5036L6.88543 26.6329C6.58381 26.7986 6.48385 27.1704 6.66272 27.4641L6.74865 27.6886C6.9284 27.9823 7.23703 28.0867 7.53778 27.9218L11.6158 25.8341C11.6211 25.8306 11.6264 25.8315 11.6316 25.828L11.9052 25.6781C12.056 25.5948 12.1568 25.4597 12.1963 25.3081C12.2375 25.1572 12.2182 24.9889 12.1297 24.8425L11.9683 24.5777ZM23.38 8.7468C21.8167 5.72443 19.117 3.49645 15.8237 2.63366C15.5896 2.57229 15.3493 2.52494 15.1099 2.47671L17.2967 1.36754C17.5983 1.20183 17.7781 0.829181 17.5992 0.535449L17.5124 0.311862C17.3327 0.0172523 16.9442 -0.0862116 16.6435 0.0777524L12.5654 2.16544C12.5602 2.16808 12.5549 2.1672 12.5496 2.17071L12.2761 2.32064C12.1244 2.40394 12.0244 2.53897 11.985 2.69066C11.9438 2.84147 11.9631 3.00982 12.0525 3.15537L12.2147 3.42192C12.2173 3.42718 12.2217 3.43069 12.2252 3.43595L14.7443 7.37196C14.9223 7.66569 15.3107 7.77003 15.6132 7.60519L15.8114 7.46753C16.113 7.30269 16.1323 6.87744 15.9543 6.58371L14.3322 4.06725C14.6891 4.12249 15.0433 4.18825 15.3905 4.27944C18.2191 5.02035 20.5251 6.93355 21.8675 9.52804C23.1372 11.9805 23.3757 14.7802 22.5383 17.4115C21.7009 20.0428 19.8903 22.191 17.437 23.4624C17.0196 23.6789 16.8566 24.191 17.0731 24.6092C17.2239 24.9003 17.5212 25.0687 17.8298 25.0687C17.9613 25.0687 18.0946 25.038 18.2209 24.9731C21.0784 23.4948 23.1871 20.9924 24.1622 17.9279C25.1363 14.8617 24.8583 11.6 23.3792 8.74505L23.38 8.7468Z" fill="#EE8908"/>
</svg>
