<svg width="27" height="26" viewBox="0 0 27 26" fill="none" xmlns="http://www.w3.org/2000/svg">
<path d="M25.4407 0.626246C25.1593 0.346883 24.8063 0.150482 24.4206 0.0586401C24.035 -0.033187 23.6313 -0.0169157 23.2543 0.105684L1.49479 7.36381C1.09124 7.49167 0.734638 7.73628 0.470014 8.0667C0.20539 8.39712 0.0446257 8.79857 0.00802271 9.22031C-0.0285802 9.64205 0.0606142 10.0651 0.264347 10.4362C0.468095 10.8073 0.77722 11.1097 1.15271 11.3053L10.1807 15.7672L14.6427 24.825C14.8221 25.1794 15.0965 25.4772 15.4353 25.6847C15.7741 25.8922 16.1641 26.0013 16.5613 26H16.7101C17.1356 25.9686 17.5418 25.8101 17.876 25.5447C18.2102 25.2795 18.4569 24.9199 18.5841 24.5127L25.9463 2.81261C26.0778 2.4377 26.1001 2.03316 26.0106 1.64609C25.9211 1.25903 25.7234 0.905357 25.4407 0.626246ZM2.41693 9.41631L21.41 3.08032L10.8649 13.6255L2.41693 9.41631ZM16.6655 23.65L12.4415 15.202L22.9866 4.65688L16.6655 23.65Z" fill="#EE8908"/>
</svg>
