<svg width="21" height="27" viewBox="0 0 21 27" fill="none" xmlns="http://www.w3.org/2000/svg">
    <path
        d="M20.2998 10.3024C20.2966 10.2571 20.3138 10.3461 20.2998 10.3024C20.2936 10.2848 20.3076 10.3205 20.2998 10.3024C20.2749 10.2464 19.5663 9.41136 19.5222 9.36608L11.108 0.0152207C11.0633 -0.0306456 11.1629 0.044287 11.108 0.0182177C11.0929 0.0112593 11.1236 0.0236079 11.108 0.0182177C11.0639 0.00224287 10.2197 0.0208638 10.173 0.0182177C10.1622 0.0171396 10.1839 0.0182177 10.173 0.0182177H4.28637C2.3768 0.0182177 0 2.54674 0 4.50733V22.6391C0 24.5997 2.37751 27 4.2865 27H16.0598C17.9688 27 20.2998 24.5998 20.2998 22.6392V16.8468V10.7698C20.2998 10.7576 20.3029 10.3476 20.2998 10.3024ZM10.6603 2.77166L17.7498 10.05H13.0844C11.7475 10.05 10.6603 8.93381 10.6603 7.56116V2.77166ZM16.0598 25.1279H4.28637C2.94944 25.1279 1.8623 24.0112 1.8623 22.6391V4.50733C1.8623 3.13467 2.95001 2.018 4.28637 2.018H8.77034V7.49761C8.77034 9.4582 11.1754 11.7047 13.0844 11.7047H18.4839V22.6392C18.4839 24.0118 17.3968 25.1279 16.0598 25.1279Z"
        fill="currentColor" />
</svg>