<svg width="13" height="14" viewBox="0 0 13 14" fill="none" xmlns="http://www.w3.org/2000/svg">
<path fill-rule="evenodd" clip-rule="evenodd" d="M0 2.8C0 1.2536 1.2536 0 2.8 0H9.8C11.3464 0 12.6 1.2536 12.6 2.8V11.2C12.6 12.7464 11.3464 14 9.8 14H2.8C1.2536 14 0 12.7464 0 11.2V2.8ZM2.7998 5C2.7998 4.6134 3.11321 4.3 3.4998 4.3H7.6998C8.0864 4.3 8.39981 4.6134 8.39981 5C8.39981 5.3866 8.0864 5.7 7.6998 5.7H3.4998C3.11321 5.7 2.7998 5.3866 2.7998 5ZM3.4998 8.09999C3.11321 8.09999 2.7998 8.41339 2.7998 8.79999C2.7998 9.18659 3.11321 9.49999 3.4998 9.49999H9.0998C9.4864 9.49999 9.7998 9.18659 9.7998 8.79999C9.7998 8.41339 9.4864 8.09999 9.0998 8.09999H3.4998Z" fill="white"/>
</svg>
