<svg width="65" height="60" viewBox="0 0 65 60" fill="none" xmlns="http://www.w3.org/2000/svg">
    <path
        d="M34.831 25.9922H3.21021C1.43732 25.9922 0 27.4295 0 29.2024C0 30.9753 1.43732 32.4126 3.21021 32.4126H5.061V35.5528H32.9804V32.4126H34.8312C36.6041 32.4126 38.0414 30.9753 38.0414 29.2024C38.0412 27.4295 36.6038 25.9922 34.831 25.9922Z"
        fill="currentColor" />
    <path
        d="M5.05078 55.8374H5.05142C5.05142 55.8374 5.05078 55.8412 5.05078 55.8432C5.05078 58.1397 11.3008 60.0014 19.0105 60.0014C26.7201 60.0014 32.9702 58.1397 32.9702 55.8432C32.9702 55.8412 32.9697 55.8393 32.9697 55.8393L32.9702 55.8374V43.0137H5.05078V55.8374Z"
        fill="currentColor" />
    <path
        d="M64.3067 2.13579C63.7131 0.465198 61.8775 -0.40755 60.2067 0.186338L22.878 13.4552C21.2076 14.0489 20.3346 15.8845 20.9285 17.5553C21.522 19.2246 23.3563 20.0986 25.0286 19.5047L62.3573 6.23586C64.0279 5.64219 64.9006 3.80659 64.3067 2.13579Z"
        fill="currentColor" />
    <path
        d="M0.736429 4.84319L2.72397 5.93016C2.80787 5.97596 2.87678 6.04488 2.92258 6.12877L4.00956 8.11631C4.19896 8.4628 4.69675 8.4628 4.88637 8.11631L5.97335 6.12877C6.01914 6.04488 6.08806 5.97596 6.17195 5.93016L8.1595 4.84319C8.50598 4.65379 8.50598 4.15599 8.1595 3.96659L6.17195 2.87961C6.08806 2.83381 6.01914 2.7649 5.97335 2.68101L4.88637 0.69346C4.69697 0.346972 4.19917 0.346972 4.00956 0.69346L2.92258 2.68101C2.87678 2.7649 2.80787 2.83381 2.72397 2.87961L0.736429 3.96637C0.38994 4.15599 0.38994 4.65357 0.736429 4.84319Z"
        fill="currentColor" />
    <path
        d="M16.5704 8.09301L17.0147 8.33613C17.0986 8.38193 17.1675 8.45084 17.2133 8.53473L17.4564 8.97903C17.6458 9.32552 18.1436 9.32552 18.333 8.97903L18.5761 8.53473C18.6219 8.45084 18.6909 8.38193 18.7748 8.33613L19.2193 8.09301C19.5657 7.90361 19.5657 7.40581 19.2193 7.21641L18.7748 6.97329C18.6909 6.92749 18.6219 6.85858 18.5761 6.77469L18.333 6.33018C18.1436 5.98369 17.6458 5.98369 17.4564 6.33018L17.2133 6.77469C17.1675 6.85858 17.0986 6.92749 17.0147 6.97329L16.5704 7.21641C16.2239 7.40603 16.2239 7.90361 16.5704 8.09301Z"
        fill="currentColor" />
    <path
        d="M7.5872 14.7448L6.19932 15.5039C5.85283 15.6935 5.85283 16.1911 6.19932 16.3807L7.5872 17.1398C7.67109 17.1856 7.74 17.2545 7.7858 17.3384L8.54491 18.7263C8.73453 19.0728 9.23211 19.0728 9.42172 18.7263L10.1808 17.3384C10.2266 17.2545 10.2955 17.1856 10.3794 17.1398L11.7673 16.3807C12.1138 16.1911 12.1138 15.6935 11.7673 15.5039L10.3794 14.7448C10.2955 14.699 10.2266 14.6301 10.1808 14.5462L9.42172 13.1583C9.23211 12.8118 8.73453 12.8118 8.54491 13.1583L7.7858 14.5462C7.73979 14.6301 7.67088 14.699 7.5872 14.7448Z"
        fill="currentColor" />
</svg>